{
  "accessors": [
    {
      "bufferView": 0,
      "componentType": 5126,
      "count": 28480,
      "max": [
        0.003141920082271099,
        0.0027959998697042465,
        0.007264249958097935
      ],
      "min": [
        -0.003144359914585948,
        -0.0,
        -0.004561750218272209
      ],
      "name": "node_0/POSITION",
      "type": "VEC3"
    },
    {
      "bufferView": 0,
      "byteOffset": 12,
      "componentType": 5126,
      "count": 28480,
      "name": "node_0/NORMAL",
      "type": "VEC3"
    },
    {
      "bufferView": 0,
      "byteOffset": 24,
      "componentType": 5126,
      "count": 28480,
      "name": "node_0/TEXCOORD_0",
      "type": "VEC2"
    },
    {
      "bufferView": 1,
      "componentType": 5123,
      "count": 150000,
      "name": "node_0/INDICES",
      "type": "SCALAR"
    }
  ],
  "asset": {
    "copyright": "Copyright (c) 2018-2020 Chukong Technologies Inc.",
    "generator": "FBX-glTF-conv",
    "version": "2.0"
  },
  "bufferViews": [
    {
      "buffer": 0,
      "byteLength": 911360,
      "byteStride": 32,
      "name": "node_0",
      "target": 34962
    },
    {
      "buffer": 0,
      "byteLength": 300000,
      "byteOffset": 911360,
      "target": 34963
    }
  ],
  "buffers": [
    {
      "byteLength": 1211360,
      "uri": "out.bin"
    }
  ],
  "extras": {
    "FBX-glTF-conv": {
      "animationFrameRate": 24.0,
      "fbxFileHeaderInfo": {
        "creationTimeStamp": {
          "day": 9,
          "hour": 13,
          "millisecond": 123,
          "minute": 58,
          "month": 6,
          "second": 5,
          "year": 2026
        },
        "creator": "Blender (stable FBX IO) - 4.2.3 LTS - 5.12.4",
        "sceneInfo": {
          "author": "",
          "comment": "",
          "keywords": "",
          "original": {
            "applicationName": "Blender (stable FBX IO)",
            "applicationVendor": "Blender Foundation",
            "applicationVersion": "4.2.3 LTS",
            "fileName": "/foobar.fbx"
          },
          "revision": "",
          "subject": "",
          "title": "",
          "url": "C:\\Users\\yyxkk\\NewProject\\assets\\17a48332b1d5a13695e96ee1d9fafaba.fbx"
        }
      }
    }
  },
  "images": [
    {
      "extras": {
        "FBX-glTF-conv": {
          "fileName": "C:\\Users\\yyxkk\\NewProject\\temp\\asset-db\\assets\\fbx.FBX-glTF-conv\\276f4a4c-fb0f-4423-887d-a9b4cacb7a64\\output\\.fbm\\8408183D\\17a48332b1d5a13695e96ee1d9fafaba.fbm/texture_pbr_20250901.png",
          "relativeFileName": "..\\temp\\asset-db\\assets\\fbx.FBX-glTF-conv\\276f4a4c-fb0f-4423-887d-a9b4cacb7a64\\output\\.fbm\\8408183D\\17a48332b1d5a13695e96ee1d9fafaba.fbm\\texture_pbr_20250901.png"
        }
      },
      "name": "base_color_texture",
      "uri": "texture_pbr_20250901.png"
    },
    {
      "extras": {
        "FBX-glTF-conv": {
          "fileName": "C:\\Users\\yyxkk\\NewProject\\temp\\asset-db\\assets\\fbx.FBX-glTF-conv\\276f4a4c-fb0f-4423-887d-a9b4cacb7a64\\output\\.fbm\\8408183D\\17a48332b1d5a13695e96ee1d9fafaba.fbm/texture_pbr_20250901_normal.png",
          "relativeFileName": "..\\temp\\asset-db\\assets\\fbx.FBX-glTF-conv\\276f4a4c-fb0f-4423-887d-a9b4cacb7a64\\output\\.fbm\\8408183D\\17a48332b1d5a13695e96ee1d9fafaba.fbm\\texture_pbr_20250901_normal.png"
        }
      },
      "name": "normalmap_texture",
      "uri": "texture_pbr_20250901_normal.png"
    },
    {
      "extras": {
        "FBX-glTF-conv": {
          "fileName": "C:\\Users\\yyxkk\\NewProject\\temp\\asset-db\\assets\\fbx.FBX-glTF-conv\\276f4a4c-fb0f-4423-887d-a9b4cacb7a64\\output\\.fbm\\8408183D\\17a48332b1d5a13695e96ee1d9fafaba.fbm/texture_pbr_20250901_roughness.png",
          "relativeFileName": "..\\temp\\asset-db\\assets\\fbx.FBX-glTF-conv\\276f4a4c-fb0f-4423-887d-a9b4cacb7a64\\output\\.fbm\\8408183D\\17a48332b1d5a13695e96ee1d9fafaba.fbm\\texture_pbr_20250901_roughness.png"
        }
      },
      "name": "roughness_texture",
      "uri": "texture_pbr_20250901_roughness.png"
    },
    {
      "extras": {
        "FBX-glTF-conv": {
          "fileName": "C:\\Users\\yyxkk\\NewProject\\temp\\asset-db\\assets\\fbx.FBX-glTF-conv\\276f4a4c-fb0f-4423-887d-a9b4cacb7a64\\output\\.fbm\\8408183D\\17a48332b1d5a13695e96ee1d9fafaba.fbm/texture_pbr_20250901_metallic.png",
          "relativeFileName": "..\\temp\\asset-db\\assets\\fbx.FBX-glTF-conv\\276f4a4c-fb0f-4423-887d-a9b4cacb7a64\\output\\.fbm\\8408183D\\17a48332b1d5a13695e96ee1d9fafaba.fbm\\texture_pbr_20250901_metallic.png"
        }
      },
      "name": "metallic_texture",
      "uri": "texture_pbr_20250901_metallic.png"
    }
  ],
  "materials": [
    {
      "extras": {
        "FBX-glTF-conv": {
          "raw": {
            "properties": {
              "ambient": {
                "value": [
                  0.05087608844041824,
                  0.05087608844041824,
                  0.05087608844041824
                ]
              },
              "ambientFactor": {
                "value": 0.0
              },
              "bump": {
                "value": [
                  0.0,
                  0.0,
                  0.0
                ]
              },
              "bumpFactor": {
                "value": 1.0
              },
              "diffuse": {
                "texture": {
                  "index": 0
                },
                "value": [
                  0.800000011920929,
                  0.800000011920929,
                  0.800000011920929
                ]
              },
              "diffuseFactor": {
                "value": 1.0
              },
              "displacementColor": {
                "value": [
                  0.0,
                  0.0,
                  0.0
                ]
              },
              "displacementFactor": {
                "value": 1.0
              },
              "emissive": {
                "value": [
                  0.0,
                  0.0,
                  0.0
                ]
              },
              "emissiveFactor": {
                "value": 0.0
              },
              "normalMap": {
                "texture": {
                  "index": 1
                },
                "value": [
                  0.0,
                  0.0,
                  0.0
                ]
              },
              "reflection": {
                "value": [
                  0.800000011920929,
                  0.800000011920929,
                  0.800000011920929
                ]
              },
              "reflectionFactor": {
                "texture": {
                  "index": 3
                },
                "value": 0.0
              },
              "shadingModel": "Phong",
              "shininess": {
                "texture": {
                  "index": 2
                },
                "value": 0.0
              },
              "specular": {
                "value": [
                  0.800000011920929,
                  0.800000011920929,
                  0.800000011920929
                ]
              },
              "specularFactor": {
                "value": 0.5
              },
              "transparencyFactor": {
                "value": 0.0
              },
              "transparentColor": {
                "value": [
                  0.0,
                  0.0,
                  0.0
                ]
              },
              "vectorDisplacementColor": {
                "value": [
                  0.0,
                  0.0,
                  0.0
                ]
              },
              "vectorDisplacementFactor": {
                "value": 1.0
              }
            },
            "type": "phong"
          }
        }
      },
      "name": "Material"
    }
  ],
  "meshes": [
    {
      "name": "node_0",
      "primitives": [
        {
          "attributes": {
            "NORMAL": 1,
            "POSITION": 0,
            "TEXCOORD_0": 2
          },
          "indices": 3,
          "material": 0
        }
      ]
    }
  ],
  "nodes": [
    {
      "mesh": 0,
      "name": "node_0",
      "scale": [
        100.0,
        100.0,
        100.0
      ]
    }
  ],
  "samplers": [
    {}
  ],
  "scenes": [
    {
      "name": "Scene",
      "nodes": [
        0
      ]
    }
  ],
  "textures": [
    {
      "name": "base_color_texture",
      "sampler": 0,
      "source": 0
    },
    {
      "name": "normalmap_texture",
      "sampler": 0,
      "source": 1
    },
    {
      "name": "roughness_texture",
      "sampler": 0,
      "source": 2
    },
    {
      "name": "metallic_texture",
      "sampler": 0,
      "source": 3
    }
  ]
}